# xmcd
#
# Track frame offsets: 
#        150
#        23575
#        40015
#        52548
#        73849
#        98929
#        116853
#        146725
#        164944
#        177924
#
# Disc length: 2653 seconds
#
# Revision: 0
# Processed by: cddbd v1.5.2PL0 Copyright (c) Steve Scherf et al.
# Submitted via: ExactAudioCopy v0.99pb3
#
DISCID=8a0a5b0a
DTITLE=Jennifer Crook - A Few Small Things
DYEAR=2008
DGENRE=Country
TTITLE0=A Stranger in Love
TTITLE1=Time Will Tell
TTITLE2=A Bicycle in Need of Repair
TTITLE3=Jane
TTITLE4=Soon Enough
TTITLE5=A Rose in Morning
TTITLE6=Everything Changes
TTITLE7=Penny
TTITLE8=Broken Dreams for Sale
TTITLE9=Too Much Rain
EXTD=
EXTT0=
EXTT1=
EXTT2=
EXTT3=
EXTT4=
EXTT5=
EXTT6=
EXTT7=
EXTT8=
EXTT9=
PLAYORDER=
